<svg role="img" viewBox="0 0 24 24" xmlns="http://www.w3.org/2000/svg" fill="#0071CE"><title>Walmart</title><path d="M16.395 18.427c0 .192-.14.325-.325.325h-1.686c-.192 0-.325-.133-.325-.325V5.573c0-.192.133-.325.325-.325h1.686c.185 0 .325.133.325.325zm-3.043 1.239c0 .192-.14.325-.325.325h-1.686c-.192 0-.325-.133-.325-.325V4.334c0-.192.133-.325.325-.325h1.686c.185 0 .325.133.325.325zm-3.044-.358c0 .192-.133.325-.325.325H8.297c-.192 0-.325-.133-.325-.325V4.692c0-.192.133-.325.325-.325h1.686c.192 0 .325.133.325.325zm-3.043-1.597c0 .192-.133.325-.325.325H5.254c-.192 0-.325-.133-.325-.325V6.289c0-.192.133-.325.325-.325h1.686c.192 0 .325.133.325.325zm13.48-1.788c0 .192-.133.325-.325.325h-1.686c-.192 0-.325-.133-.325-.325V7.746c0-.192.133-.325.325-.325h1.686c.192 0 .325.133.325.325zM12 0C5.373 0 0 5.373 0 12s5.373 12 12 12 12-5.373 12-12S18.627 0 12 0z"/></svg>